<?xml version="1.0" encoding="utf-8"?>
<svg id="Layer_1" data-name="Layer 1" xmlns="http://www.w3.org/2000/svg" viewBox="439.695 0 70.385 141.643">
  <defs>
    <style>.cls-1{fill:none;}.cls-2{fill:#8b939a;}.cls-3{clip-path:url(#clip-path);}.cls-4{fill:#6c757a;}.cls-5{fill:#e5203c;}.cls-6{clip-path:url(#clip-path-2);}.cls-7{fill:#c02537;}.cls-8{clip-path:url(#clip-path-3);}.cls-9{fill:#0658a0;}.cls-10{clip-path:url(#clip-path-5);}.cls-11{fill:#104b7d;}</style>
    <clipPath id="clip-path" transform="translate(-165.84 -217.64)">
      <path class="cls-1" d="M618.34,280.69l-2,1.44s0,0,0,.06a32.87,32.87,0,0,0-10.83,24.45,32.34,32.34,0,0,0,.85,7.45c.31,1,.6,2.07.86,3.11a.07.07,0,0,1,0,0,102.12,102.12,0,0,1,3.43,26.48c0,6,.23,8.91-.73,14.63,4.61-7.88,7.51-13.55,9.91-22.57.13-.53.29-1.1.42-1.63a104.19,104.19,0,0,0-1.06-54c-.28.18-.55.37-.82.57"/>
    </clipPath>
    <clipPath id="clip-path-2" transform="translate(-165.84 -217.64)">
      <path class="cls-1" d="M640.34,248.23c-1.65,1-3.22,2-4.8,3.09a32.73,32.73,0,0,0-12.82,25.23v.82a33.39,33.39,0,0,0,.35,4.84c.53,1.89,1,3.87,1.42,5.85a104.14,104.14,0,0,1-.93,47c-.52,1.94-1.06,3.88-1.67,5.79a102.88,102.88,0,0,1-7.41,17.51,111,111,0,0,0,10.17-10.91,103,103,0,0,0,22.77-64.66c0-3.1-.11-6.14-.39-9.16-.22-2.57-.56-5.11-1-7.67a98.89,98.89,0,0,0-4.76-18.21c-.3.16-.65.32-1,.49"/>
    </clipPath>
    <clipPath id="clip-path-3" transform="translate(-165.84 -217.64)">
      <rect class="cls-1" x="618.89" y="217.64" width="57.02" height="140.71"/>
    </clipPath>
    <clipPath id="clip-path-5" transform="translate(-165.84 -217.64)">
      <path class="cls-1" d="M662.31,218.43c-1.92,1.24-3.76,2.53-5.56,3.89h-.06a32.16,32.16,0,0,0-11.06,24.06v.23a32.89,32.89,0,0,0,.55,6c.58,1.8,1.1,3.59,1.54,5.42l0,0c.6,2.36,1.14,4.8,1.57,7.23.58,3.24,1,6.5,1.28,9.83.23,2.78.37,5.63.37,8.48a103,103,0,0,1-16,55.13,106,106,0,0,1-8.9,12c-2.27,2.6-4.65,5.13-7.17,7.52,2.93-1.5,5.81-3.1,8.58-4.83A102.2,102.2,0,0,0,646.76,338a104.42,104.42,0,0,0,20-29.26q2.22-5,4-10.15h0a104.13,104.13,0,0,0,4.44-19.86,106.79,106.79,0,0,0,.74-12.56c0-1.56,0-3.09-.08-4.62-.17-3.52-.49-7-1-10.44a99.64,99.64,0,0,0-3.33-14.88,102.22,102.22,0,0,0-7.66-18.54c-.53.27-1.06.53-1.54.79"/>
    </clipPath>
  </defs>
  <title>logo</title>
  <path class="cls-2" d="M623.27,309.1a103,103,0,0,1-3.06,25.06c-.13.53-.29,1.1-.42,1.63-2.4,9-5.29,14.7-9.91,22.57,1-5.71.73-8.68.73-14.63a102.12,102.12,0,0,0-3.43-26.48v0c-.28-1-.58-2.09-.88-3.11a32.34,32.34,0,0,1-.85-7.45,32.87,32.87,0,0,1,10.83-24.45s0,0,0-.06l2-1.44c.27-.19.53-.39.82-.57a102.78,102.78,0,0,1,4.11,29" transform="translate(-165.84 -217.64)"/>
  <path class="cls-2" d="M623.27,309.1a103,103,0,0,1-3.06,25.06c-.13.53-.29,1.1-.42,1.63-2.4,9-5.29,14.7-9.91,22.57,1-5.71.73-8.68.73-14.63a102.12,102.12,0,0,0-3.43-26.48v0c-.28-1-.58-2.09-.88-3.11a32.34,32.34,0,0,1-.85-7.45,32.87,32.87,0,0,1,10.83-24.45s0,0,0-.06l2-1.44c.27-.19.53-.39.82-.57a102.78,102.78,0,0,1,4.11,29" transform="translate(-165.84 -217.64)"/>
  <g class="cls-3">
    <path class="cls-4" d="M613.38,320a102.75,102.75,0,0,1-.53,25.22c-.07.55-.17,1.1-.27,1.64C611.09,356,608.77,362,605,370.3c.41-5.77-.11-8.7-.71-14.64a103.26,103.26,0,0,0-6-26s0,0,0,0c-.37-1-.76-2-1.17-3a36,36,0,0,1-1.59-7.36,33,33,0,0,1,8.36-25.41l0,0,1.83-1.63c.29-.21.52-.42.78-.64a102.71,102.71,0,0,1,7,28.43" transform="translate(-165.84 -217.64)"/>
  </g>
  <path class="cls-5" d="M647.43,282.79a103.09,103.09,0,0,1-22.77,64.66,111,111,0,0,1-10.17,10.91,102.88,102.88,0,0,0,7.41-17.51c.62-1.91,1.15-3.86,1.67-5.79a104.14,104.14,0,0,0,.93-47c-.41-2-.9-4-1.42-5.85a33.39,33.39,0,0,1-.35-4.84v-.82a32.73,32.73,0,0,1,12.82-25.23c1.57-1.08,3.15-2.1,4.8-3.09.32-.16.67-.32,1-.49A98.89,98.89,0,0,1,646.06,266c.41,2.56.76,5.1,1,7.67.28,3,.39,6.07.39,9.16" transform="translate(-165.84 -217.64)"/>
  <path class="cls-5" d="M647.43,282.79a103.09,103.09,0,0,1-22.77,64.66,111,111,0,0,1-10.17,10.91,102.88,102.88,0,0,0,7.41-17.51c.62-1.91,1.15-3.86,1.67-5.79a104.14,104.14,0,0,0,.93-47c-.41-2-.9-4-1.42-5.85a33.39,33.39,0,0,1-.35-4.84v-.82a32.73,32.73,0,0,1,12.82-25.23c1.57-1.08,3.15-2.1,4.8-3.09.32-.16.67-.32,1-.49A98.89,98.89,0,0,1,646.06,266c.41,2.56.76,5.1,1,7.67.28,3,.39,6.07.39,9.16" transform="translate(-165.84 -217.64)"/>
  <g class="cls-6">
    <path class="cls-7" d="M632.89,297.76a109.16,109.16,0,0,1-3.36,26.85,107.47,107.47,0,0,1-13.46,31.25A111.63,111.63,0,0,1,608.82,366a108.42,108.42,0,0,1-10.75,11.53A104.24,104.24,0,0,0,605.93,359c.65-2,1.24-4.07,1.75-6.13a108.52,108.52,0,0,0,1-49.61c-.45-2.08-.95-4.16-1.5-6.19a34.29,34.29,0,0,1-.39-5.1v-.86a34.78,34.78,0,0,1,13.52-26.65c1.7-1.12,3.35-2.2,5.09-3.24a7.36,7.36,0,0,1,1-.52,107.75,107.75,0,0,1,5,19.23c.44,2.63.76,5.36,1,8.09.26,3.21.42,6.4.42,9.68" transform="translate(-165.84 -217.64)"/>
  </g>
  <g class="cls-8">
    <g class="cls-8">
      <path class="cls-9" d="M663.85,217.64a103.47,103.47,0,0,1,7.66,18.54,99.64,99.64,0,0,1,3.33,14.88c.5,3.42.82,6.91,1,10.44.07,1.53.08,3.06.08,4.62a106.53,106.53,0,0,1-.74,12.56,102.86,102.86,0,0,1-4.46,19.86h0c-1.15,3.45-2.48,6.84-4,10.15a103.55,103.55,0,0,1-20,29.26,101.55,101.55,0,0,1-19.27,15.56c-2.77,1.73-5.65,3.34-8.58,4.83,2.51-2.39,4.89-4.93,7.17-7.52a106,106,0,0,0,8.9-12,102.68,102.68,0,0,0,12.67-29.15,103.83,103.83,0,0,0,3.31-26c0-2.85-.12-5.7-.35-8.48-.28-3.33-.71-6.59-1.28-9.83-.43-2.43-1-4.87-1.57-7.23l0,0c-.44-1.83-1-3.62-1.54-5.42a32.89,32.89,0,0,1-.55-6v-.23a32.16,32.16,0,0,1,11.06-24.06s0,0,0,0c1.82-1.36,3.67-2.65,5.59-3.89.48-.26,1-.52,1.54-.79" transform="translate(-165.84 -217.64)"/>
    </g>
  </g>
  <g class="cls-10">
    <path class="cls-11" d="M659.49,276.25a104.2,104.2,0,0,1-5.22,32.45h0a101.82,101.82,0,0,1-4,10.12,103.18,103.18,0,0,1-20,29.29A101.49,101.49,0,0,1,611,363.66c-2.8,1.75-5.64,3.37-8.58,4.83,2.51-2.39,4.91-4.89,7.18-7.53a104.71,104.71,0,0,0,8.87-12,103,103,0,0,0,16-55.14q0-4.27-.36-8.49a95.9,95.9,0,0,0-1.27-9.81c-.44-2.43-.93-4.86-1.55-7.22,0,0,0,0,0,0-.47-1.82-1-3.66-1.57-5.44a34.61,34.61,0,0,1-.55-6v-.24a32.07,32.07,0,0,1,11.08-24.05h0c1.83-1.36,3.68-2.7,5.58-3.9.5-.28,1-.56,1.55-.8a102.76,102.76,0,0,1,7.68,18.53,106.9,106.9,0,0,1,3.32,14.91,102.71,102.71,0,0,1,1,10.42c.06,1.56.11,3.05.11,4.59" transform="translate(-165.84 -217.64)"/>
  </g>
</svg>