<svg id="Layer_1" data-name="Layer 1" xmlns="http://www.w3.org/2000/svg" xmlns:xlink="http://www.w3.org/1999/xlink" viewBox="0 0 510.08 159.88"><defs><style>.cls-1{fill:none;}.cls-2{fill:#8b939a;}.cls-3{clip-path:url(#clip-path);}.cls-4{fill:#6c757a;}.cls-5{fill:#e5203c;}.cls-6{clip-path:url(#clip-path-2);}.cls-7{fill:#c02537;}.cls-8{clip-path:url(#clip-path-3);}.cls-9{fill:#0658a0;}.cls-10{clip-path:url(#clip-path-5);}.cls-11{fill:#104b7d;}</style><clipPath id="clip-path" transform="translate(-165.84 -217.64)"><path class="cls-1" d="M618.34,280.69l-2,1.44s0,0,0,.06a32.87,32.87,0,0,0-10.83,24.45,32.34,32.34,0,0,0,.85,7.45c.31,1,.6,2.07.86,3.11a.07.07,0,0,1,0,0,102.12,102.12,0,0,1,3.43,26.48c0,6,.23,8.91-.73,14.63,4.61-7.88,7.51-13.55,9.91-22.57.13-.53.29-1.1.42-1.63a104.19,104.19,0,0,0-1.06-54c-.28.18-.55.37-.82.57"/></clipPath><clipPath id="clip-path-2" transform="translate(-165.84 -217.64)"><path class="cls-1" d="M640.34,248.23c-1.65,1-3.22,2-4.8,3.09a32.73,32.73,0,0,0-12.82,25.23v.82a33.39,33.39,0,0,0,.35,4.84c.53,1.89,1,3.87,1.42,5.85a104.14,104.14,0,0,1-.93,47c-.52,1.94-1.06,3.88-1.67,5.79a102.88,102.88,0,0,1-7.41,17.51,111,111,0,0,0,10.17-10.91,103,103,0,0,0,22.77-64.66c0-3.1-.11-6.14-.39-9.16-.22-2.57-.56-5.11-1-7.67a98.89,98.89,0,0,0-4.76-18.21c-.3.16-.65.32-1,.49"/></clipPath><clipPath id="clip-path-3" transform="translate(-165.84 -217.64)"><rect class="cls-1" x="618.89" y="217.64" width="57.02" height="140.71"/></clipPath><clipPath id="clip-path-5" transform="translate(-165.84 -217.64)"><path class="cls-1" d="M662.31,218.43c-1.92,1.24-3.76,2.53-5.56,3.89h-.06a32.16,32.16,0,0,0-11.06,24.06v.23a32.89,32.89,0,0,0,.55,6c.58,1.8,1.1,3.59,1.54,5.42l0,0c.6,2.36,1.14,4.8,1.57,7.23.58,3.24,1,6.5,1.28,9.83.23,2.78.37,5.63.37,8.48a103,103,0,0,1-16,55.13,106,106,0,0,1-8.9,12c-2.27,2.6-4.65,5.13-7.17,7.52,2.93-1.5,5.81-3.1,8.58-4.83A102.2,102.2,0,0,0,646.76,338a104.42,104.42,0,0,0,20-29.26q2.22-5,4-10.15h0a104.13,104.13,0,0,0,4.44-19.86,106.79,106.79,0,0,0,.74-12.56c0-1.56,0-3.09-.08-4.62-.17-3.52-.49-7-1-10.44a99.64,99.64,0,0,0-3.33-14.88,102.22,102.22,0,0,0-7.66-18.54c-.53.27-1.06.53-1.54.79"/></clipPath></defs><title>logo</title><path class="cls-2" d="M623.27,309.1a103,103,0,0,1-3.06,25.06c-.13.53-.29,1.1-.42,1.63-2.4,9-5.29,14.7-9.91,22.57,1-5.71.73-8.68.73-14.63a102.12,102.12,0,0,0-3.43-26.48v0c-.28-1-.58-2.09-.88-3.11a32.34,32.34,0,0,1-.85-7.45,32.87,32.87,0,0,1,10.83-24.45s0,0,0-.06l2-1.44c.27-.19.53-.39.82-.57a102.78,102.78,0,0,1,4.11,29" transform="translate(-165.84 -217.64)"/><path class="cls-2" d="M623.27,309.1a103,103,0,0,1-3.06,25.06c-.13.53-.29,1.1-.42,1.63-2.4,9-5.29,14.7-9.91,22.57,1-5.71.73-8.68.73-14.63a102.12,102.12,0,0,0-3.43-26.48v0c-.28-1-.58-2.09-.88-3.11a32.34,32.34,0,0,1-.85-7.45,32.87,32.87,0,0,1,10.83-24.45s0,0,0-.06l2-1.44c.27-.19.53-.39.82-.57a102.78,102.78,0,0,1,4.11,29" transform="translate(-165.84 -217.64)"/><g class="cls-3"><path class="cls-4" d="M613.38,320a102.75,102.75,0,0,1-.53,25.22c-.07.55-.17,1.1-.27,1.64C611.09,356,608.77,362,605,370.3c.41-5.77-.11-8.7-.71-14.64a103.26,103.26,0,0,0-6-26s0,0,0,0c-.37-1-.76-2-1.17-3a36,36,0,0,1-1.59-7.36,33,33,0,0,1,8.36-25.41l0,0,1.83-1.63c.29-.21.52-.42.78-.64a102.71,102.71,0,0,1,7,28.43" transform="translate(-165.84 -217.64)"/></g><path class="cls-5" d="M647.43,282.79a103.09,103.09,0,0,1-22.77,64.66,111,111,0,0,1-10.17,10.91,102.88,102.88,0,0,0,7.41-17.51c.62-1.91,1.15-3.86,1.67-5.79a104.14,104.14,0,0,0,.93-47c-.41-2-.9-4-1.42-5.85a33.39,33.39,0,0,1-.35-4.84v-.82a32.73,32.73,0,0,1,12.82-25.23c1.57-1.08,3.15-2.1,4.8-3.09.32-.16.67-.32,1-.49A98.89,98.89,0,0,1,646.06,266c.41,2.56.76,5.1,1,7.67.28,3,.39,6.07.39,9.16" transform="translate(-165.84 -217.64)"/><path class="cls-5" d="M647.43,282.79a103.09,103.09,0,0,1-22.77,64.66,111,111,0,0,1-10.17,10.91,102.88,102.88,0,0,0,7.41-17.51c.62-1.91,1.15-3.86,1.67-5.79a104.14,104.14,0,0,0,.93-47c-.41-2-.9-4-1.42-5.85a33.39,33.39,0,0,1-.35-4.84v-.82a32.73,32.73,0,0,1,12.82-25.23c1.57-1.08,3.15-2.1,4.8-3.09.32-.16.67-.32,1-.49A98.89,98.89,0,0,1,646.06,266c.41,2.56.76,5.1,1,7.67.28,3,.39,6.07.39,9.16" transform="translate(-165.84 -217.64)"/><g class="cls-6"><path class="cls-7" d="M632.89,297.76a109.16,109.16,0,0,1-3.36,26.85,107.47,107.47,0,0,1-13.46,31.25A111.63,111.63,0,0,1,608.82,366a108.42,108.42,0,0,1-10.75,11.53A104.24,104.24,0,0,0,605.93,359c.65-2,1.24-4.07,1.75-6.13a108.52,108.52,0,0,0,1-49.61c-.45-2.08-.95-4.16-1.5-6.19a34.29,34.29,0,0,1-.39-5.1v-.86a34.78,34.78,0,0,1,13.52-26.65c1.7-1.12,3.35-2.2,5.09-3.24a7.36,7.36,0,0,1,1-.52,107.75,107.75,0,0,1,5,19.23c.44,2.63.76,5.36,1,8.09.26,3.21.42,6.4.42,9.68" transform="translate(-165.84 -217.64)"/></g><g class="cls-8"><g class="cls-8"><path class="cls-9" d="M663.85,217.64a103.47,103.47,0,0,1,7.66,18.54,99.64,99.64,0,0,1,3.33,14.88c.5,3.42.82,6.91,1,10.44.07,1.53.08,3.06.08,4.62a106.53,106.53,0,0,1-.74,12.56,102.86,102.86,0,0,1-4.46,19.86h0c-1.15,3.45-2.48,6.84-4,10.15a103.55,103.55,0,0,1-20,29.26,101.55,101.55,0,0,1-19.27,15.56c-2.77,1.73-5.65,3.34-8.58,4.83,2.51-2.39,4.89-4.93,7.17-7.52a106,106,0,0,0,8.9-12,102.68,102.68,0,0,0,12.67-29.15,103.83,103.83,0,0,0,3.31-26c0-2.85-.12-5.7-.35-8.48-.28-3.33-.71-6.59-1.28-9.83-.43-2.43-1-4.87-1.57-7.23l0,0c-.44-1.83-1-3.62-1.54-5.42a32.89,32.89,0,0,1-.55-6v-.23a32.16,32.16,0,0,1,11.06-24.06s0,0,0,0c1.82-1.36,3.67-2.65,5.59-3.89.48-.26,1-.52,1.54-.79" transform="translate(-165.84 -217.64)"/></g></g><g class="cls-10"><path class="cls-11" d="M659.49,276.25a104.2,104.2,0,0,1-5.22,32.45h0a101.82,101.82,0,0,1-4,10.12,103.18,103.18,0,0,1-20,29.29A101.49,101.49,0,0,1,611,363.66c-2.8,1.75-5.64,3.37-8.58,4.83,2.51-2.39,4.91-4.89,7.18-7.53a104.71,104.71,0,0,0,8.87-12,103,103,0,0,0,16-55.14q0-4.27-.36-8.49a95.9,95.9,0,0,0-1.27-9.81c-.44-2.43-.93-4.86-1.55-7.22,0,0,0,0,0,0-.47-1.82-1-3.66-1.57-5.44a34.61,34.61,0,0,1-.55-6v-.24a32.07,32.07,0,0,1,11.08-24.05h0c1.83-1.36,3.68-2.7,5.58-3.9.5-.28,1-.56,1.55-.8a102.76,102.76,0,0,1,7.68,18.53,106.9,106.9,0,0,1,3.32,14.91,102.71,102.71,0,0,1,1,10.42c.06,1.56.11,3.05.11,4.59" transform="translate(-165.84 -217.64)"/></g><path class="cls-9" d="M199.23,349.39a7.72,7.72,0,0,1-.5-1.82,7.86,7.86,0,0,1-.12-1.36,4.71,4.71,0,0,1,0-.69,1.39,1.39,0,0,1,0-.21l-5.24,13.05h-8.6l-19-46.53h6.38a6.08,6.08,0,0,1,2,.34,8.08,8.08,0,0,1,1.73.86,7.62,7.62,0,0,1,1.42,1.3,5.52,5.52,0,0,1,1,1.65l10.09,24.53a9.28,9.28,0,0,1,.33,1.06,9.61,9.61,0,0,1,.22,1,5.25,5.25,0,0,1,.18,1,6.7,6.7,0,0,1,.14-1c.06-.31.13-.64.23-1s.22-.71.33-1.06l10-24.53a5.54,5.54,0,0,1,1-1.67,6.31,6.31,0,0,1,1.44-1.3,7.1,7.1,0,0,1,1.75-.85,6,6,0,0,1,1.91-.32h6.41L203.76,333l2.81,7.5a6.67,6.67,0,0,1,.34,1.11c.06.34.12.7.17,1a4.32,4.32,0,0,1,.11,1,5,5,0,0,1,.08-1c.05-.31.1-.66.18-1a5.28,5.28,0,0,1,.36-1.11L217.89,316a5.87,5.87,0,0,1,1-1.67,6.39,6.39,0,0,1,1.47-1.3,7.68,7.68,0,0,1,1.76-.85,6.06,6.06,0,0,1,1.9-.32h6.41l-18.94,46.53h-8.59Z" transform="translate(-165.84 -217.64)"/><rect class="cls-9" x="69.79" y="94.19" width="9.95" height="46.53"/><polygon class="cls-9" points="117.18 113.09 117.18 123.03 101.26 123.03 101.26 140.71 91.36 140.71 91.36 94.19 120.27 94.19 120.27 104.11 101.26 104.11 101.26 113.09 117.18 113.09"/><path class="cls-9" d="M302.62,311.83h8.52l19,46.53h-6.41a5.91,5.91,0,0,1-1.94-.3,5.26,5.26,0,0,1-1.71-.82,6.4,6.4,0,0,1-2.45-3L315.54,349h-17.3l-2.06,5.19a5.35,5.35,0,0,1-1,1.61,8.62,8.62,0,0,1-1.48,1.34,8,8,0,0,1-1.74.88,7.22,7.22,0,0,1-1.89.31h-6.42Zm-.4,27.61h9.29l-3.8-9.77a7.46,7.46,0,0,1-.42-1.24c-.1-.42-.18-.72-.25-1a6.19,6.19,0,0,1-.15-1c0,.3-.11.62-.17,1s-.15.66-.26,1.05-.27.79-.4,1.21Z" transform="translate(-165.84 -217.64)"/><path class="cls-9" d="M344.85,358.36h-9.91V311.83h9.91Zm4.2-25.95,10.47-17a8.77,8.77,0,0,1,1-1.36,8.59,8.59,0,0,1,1.26-1.12,6.35,6.35,0,0,1,1.41-.82,3.84,3.84,0,0,1,1.51-.32h8.95L360.55,333a3,3,0,0,1-1,1,4.68,4.68,0,0,1-.67.4.67.67,0,0,1,.23.1,2,2,0,0,1,.42.27,3.94,3.94,0,0,1,.55.46,3.39,3.39,0,0,1,.47.6l13.95,22.5h-8.92a4.58,4.58,0,0,1-3-1,10.88,10.88,0,0,1-2.25-2.72l-11.3-18.19a10.05,10.05,0,0,0-.72-.94,5.42,5.42,0,0,0-.77-.6,2.72,2.72,0,0,0-.59-.35l-.27-.16a.75.75,0,0,0,.27-.1,3.74,3.74,0,0,0,.59-.34,4.86,4.86,0,0,0,.77-.6,7.74,7.74,0,0,0,.72-1" transform="translate(-165.84 -217.64)"/><path class="cls-9" d="M406.83,358.36H399V311.83h19.21a12.68,12.68,0,0,1,5.21,1.1,13,13,0,0,1,4.26,3,13.33,13.33,0,0,1,2.87,4.49,14.59,14.59,0,0,1,1,5.51,9.72,9.72,0,0,1-.29,2.1,15,15,0,0,1-.8,2.38,10.45,10.45,0,0,1-1.26,2,3,3,0,0,1-1.69,1.1,4,4,0,0,1,2.36,1.19,9.67,9.67,0,0,1,1.85,2.51,14.24,14.24,0,0,1,1.25,3.28,13,13,0,0,1,.43,3.32,14.35,14.35,0,0,1-1.07,5.66,14.59,14.59,0,0,1-2.92,4.58,13.56,13.56,0,0,1-4.32,3.07,13.14,13.14,0,0,1-5.33,1.11Zm2.08-35.91v7h9.69a3.48,3.48,0,0,0,1.22-.24,3.56,3.56,0,0,0,1-.75,4.42,4.42,0,0,0,.68-1.11,3.56,3.56,0,0,0,.24-1.37,3.85,3.85,0,0,0-.24-1.36,4.05,4.05,0,0,0-.68-1.13,2.88,2.88,0,0,0-1-.76,2.82,2.82,0,0,0-1.22-.28Zm11.3,25.28a2.78,2.78,0,0,0,1.31-.29,3.6,3.6,0,0,0,1-.85,3.93,3.93,0,0,0,.74-1.23,4.3,4.3,0,0,0,0-2.93,3.75,3.75,0,0,0-.69-1.18,4,4,0,0,0-1.07-.82,3,3,0,0,0-1.34-.31h-11.3v7.63Z" transform="translate(-165.84 -217.64)"/><path class="cls-9" d="M454.69,311.83h8.56l19,46.53H475.8a5.57,5.57,0,0,1-1.9-.3,5.05,5.05,0,0,1-1.71-.82,6.75,6.75,0,0,1-1.43-1.26,6.08,6.08,0,0,1-1-1.75L467.61,349H450.3l-2,5.19a5.73,5.73,0,0,1-1,1.61,9.17,9.17,0,0,1-1.46,1.34,8.57,8.57,0,0,1-1.75.88,7.26,7.26,0,0,1-1.9.31h-6.41Zm-.4,27.61h9.28l-3.8-9.77a12.29,12.29,0,0,1-.42-1.24,10.51,10.51,0,0,1-.23-1,5.28,5.28,0,0,1-.16-1c0,.3-.11.62-.17,1s-.15.66-.25,1.05-.25.79-.43,1.21Z" transform="translate(-165.84 -217.64)"/><path class="cls-9" d="M527,358.36h-9.86l-20.78-32.18v32.18h-9.89V311.83h9.8a7.08,7.08,0,0,1,2.55.45,3.74,3.74,0,0,1,1.74,1.44l15.18,23.8a5.29,5.29,0,0,1,.58,1.13c.15.42.31.79.42,1.16a9.64,9.64,0,0,1,.28.93c0,.24.1.42.1.47V311.83H527Z" transform="translate(-165.84 -217.64)"/><path class="cls-9" d="M548.17,358.36h-9.91V311.83h9.91Zm4.19-25.95,10.45-17a10.36,10.36,0,0,1,1-1.36,9.54,9.54,0,0,1,1.26-1.12,7.4,7.4,0,0,1,1.4-.82,4,4,0,0,1,1.52-.32h8.94l-13,21.2a3.25,3.25,0,0,1-1,1,6.69,6.69,0,0,1-.66.4,1.17,1.17,0,0,1,.22.1c.12.06.25.16.44.27s.31.26.5.46a4.77,4.77,0,0,1,.5.6l13.92,22.5h-8.88a4.65,4.65,0,0,1-3-1,10.86,10.86,0,0,1-2.26-2.72l-11.3-18.19a4.78,4.78,0,0,0-.72-.94,4.3,4.3,0,0,0-.76-.6,1.93,1.93,0,0,0-.6-.35l-.27-.16a.74.74,0,0,0,.27-.1,2.39,2.39,0,0,0,.6-.34,3.94,3.94,0,0,0,.76-.6,4.26,4.26,0,0,0,.72-1" transform="translate(-165.84 -217.64)"/><path class="cls-9" d="M207.57,260.37a16.29,16.29,0,0,0-10.17-3.21,16.66,16.66,0,0,0-10.24,3.2,10.19,10.19,0,0,0-4.4,8.28v10.1a10.21,10.21,0,0,0,4.43,8.32,16.6,16.6,0,0,0,10.22,3.22,19.69,19.69,0,0,0,4.8-.7,3.34,3.34,0,0,1-1.07,1.41,5.63,5.63,0,0,1-3.74,1.15H182.25a6.2,6.2,0,0,1-3.79-1.11,3.06,3.06,0,0,1-1.35-2.48V270.9c0-1.19-.45-4-4.74-4s-4.76,2.76-4.76,4v17.66a10.06,10.06,0,0,0,4.44,8.26,16.26,16.26,0,0,0,10.2,3.25H197.4a16.16,16.16,0,0,0,10.17-3.25,10,10,0,0,0,4.44-8.26V268.64a10.15,10.15,0,0,0-4.44-8.27m-5,18.35a3.08,3.08,0,0,1-1.37,2.44,6.1,6.1,0,0,1-3.79,1.14,6,6,0,0,1-3.83-1.14,3,3,0,0,1-1.35-2.44V268.64a2.84,2.84,0,0,1,1.35-2.4,6.84,6.84,0,0,1,7.62,0,2.82,2.82,0,0,1,1.37,2.4Z" transform="translate(-165.84 -217.64)"/><path class="cls-9" d="M202.37,255.8c4.23,0,4.7-2.76,4.7-4v-1.6c0-1.19-.47-3.92-4.7-3.92s-4.77,2.73-4.77,3.92v1.6c0,1.2.47,4,4.77,4" transform="translate(-165.84 -217.64)"/><path class="cls-9" d="M192.44,255.8c4.39,0,4.73-3,4.73-4v-1.6c0-.94-.33-3.92-4.73-3.92s-4.76,2.73-4.76,3.92v1.6c0,1.2.47,4,4.76,4" transform="translate(-165.84 -217.64)"/><path class="cls-9" d="M318.39,255.5c4.27,0,4.74-2.74,4.74-3.94V250c0-.93-.34-4-4.74-4s-4.74,2.77-4.74,4v1.58c0,1.2.46,3.94,4.74,3.94" transform="translate(-165.84 -217.64)"/><path class="cls-9" d="M328.59,260.1a16.19,16.19,0,0,0-10.2-3.25,16.47,16.47,0,0,0-10.2,3.21,10.18,10.18,0,0,0-4.42,8.32V278.5a10.35,10.35,0,0,0,4.42,8.27A16.55,16.55,0,0,0,318.42,290a19.39,19.39,0,0,0,4.8-.67,3.3,3.3,0,0,1-1.06,1.42,5.94,5.94,0,0,1-3.76,1.14H229.61a6.25,6.25,0,0,1-3.86-1.15,2.91,2.91,0,0,1-1.32-2.44v-36c0-.93-.33-3.95-4.71-3.95s-4.76,3-4.76,3.95v36a10.21,10.21,0,0,0,4.41,8.32,16.2,16.2,0,0,0,9,3.13v.08h90a16.29,16.29,0,0,0,10.2-3.22,10.16,10.16,0,0,0,4.43-8.31V268.38a10.12,10.12,0,0,0-4.43-8.28m-15.35,18.35V268.38a2.86,2.86,0,0,1,1.33-2.44,6.33,6.33,0,0,1,3.82-1.17,6.23,6.23,0,0,1,3.79,1.17,2.91,2.91,0,0,1,1.38,2.44v10.07a3,3,0,0,1-1.41,2.42,5.94,5.94,0,0,1-3.76,1.18,6.13,6.13,0,0,1-3.82-1.18,3,3,0,0,1-1.33-2.42" transform="translate(-165.84 -217.64)"/><path class="cls-9" d="M380,248.36c-4.29,0-4.72,2.75-4.72,4v26.06a2.91,2.91,0,0,1-1.39,2.45,5.74,5.74,0,0,1-3.79,1.15h-4.86V268.32a10,10,0,0,0-4.48-8.23,16.27,16.27,0,0,0-10.19-3.26,16.51,16.51,0,0,0-10.25,3.23,10.14,10.14,0,0,0-4.38,8.26v10.06a10.31,10.31,0,0,0,4.38,8.34,16.44,16.44,0,0,0,10.06,3.15h5.34v.89a4.68,4.68,0,0,1-1.43,3.34,8.29,8.29,0,0,1-4.11,2.34l-4.85,1.39,4.84,1.41a14.13,14.13,0,0,0,3.69.5,12.52,12.52,0,0,0,7.85-2.5,7.89,7.89,0,0,0,3.53-6.48v-.89h4.86a16.39,16.39,0,0,0,10.23-3.2,10.16,10.16,0,0,0,4.4-8.29V252.32c0-1.21-.45-4-4.74-4m-34.58,20a2.81,2.81,0,0,1,1.29-2.38,6.27,6.27,0,0,1,3.86-1.2,6,6,0,0,1,3.8,1.2,2.8,2.8,0,0,1,1.35,2.38V282h-5.14a6,6,0,0,1-3.84-1.15,3,3,0,0,1-1.31-2.45Z" transform="translate(-165.84 -217.64)"/><path class="cls-9" d="M392.37,248.31c-4.4,0-4.74,3-4.74,3.95v43.55c0,.92.33,3.94,4.74,3.94s4.75-3,4.75-3.94V252.26c0-.93-.37-3.95-4.75-3.95" transform="translate(-165.84 -217.64)"/><path class="cls-9" d="M499.3,279.38H512c2.85,0,3.08-2.11,3.08-2.72,0-1.31-.82-2.73-3.08-2.73h-5.92a2.72,2.72,0,0,1-1.53-.43c-.39-.33-.39-.53-.39-.69v-2.59c0-.2,0-.4.38-.72a2.8,2.8,0,0,1,3.05,0,.85.85,0,0,1,.38.74c0,1.3.84,2.7,3.16,2.7s3.12-1.43,3.12-2.71a5.9,5.9,0,0,0-2.56-4.78,9.64,9.64,0,0,0-11.21,0,5.76,5.76,0,0,0-2.61,4.81v2.59a5.32,5.32,0,0,0,.17,1.31,2.54,2.54,0,0,0-1.85,2.54c0,1.25.82,2.72,3.11,2.72" transform="translate(-165.84 -217.64)"/><path class="cls-9" d="M549.83,265.36c4.38,0,4.73-3,4.73-3.93v-1.65c0-.92-.35-3.95-4.73-3.95s-4.76,3-4.76,3.95v1.65c0,.9.35,3.93,4.76,3.93" transform="translate(-165.84 -217.64)"/><path class="cls-9" d="M567.27,300.13c-4.31,0-4.78,2.72-4.78,3.91v1.63c0,1.19.47,3.95,4.78,3.95s4.73-3,4.73-3.95V304c0-.93-.35-3.91-4.73-3.91" transform="translate(-165.84 -217.64)"/><path class="cls-9" d="M573.07,266.68c-4.4,0-4.74,3.06-4.74,4v17.61a3,3,0,0,1-1.39,2.45,5.93,5.93,0,0,1-3.79,1.14h-3.43a6.23,6.23,0,0,1-3.83-1.14,3,3,0,0,1-1.33-2.49V270.65c0-.91-.35-4-4.73-4s-4.76,3.06-4.76,4v17.61a2.88,2.88,0,0,1-1.38,2.45,6,6,0,0,1-3.79,1.14h-3.46a6.38,6.38,0,0,1-3.89-1.18,2.89,2.89,0,0,1-1.33-2.45v-36c0-.93-.35-3.95-4.73-3.95s-4.74,3-4.74,3.95v36a2.92,2.92,0,0,1-1.35,2.45,6.05,6.05,0,0,1-3.8,1.14h-94a6.15,6.15,0,0,1-3.84-1.15,2.87,2.87,0,0,1-1.32-2.44V270.65c0-.91-.35-4-4.71-4s-4.76,2.78-4.76,4v17.57a10.22,10.22,0,0,0,4.38,8.32,16.61,16.61,0,0,0,10.25,3.21h94a16.22,16.22,0,0,0,9.89-3,15.85,15.85,0,0,0,8.71,3v.06h4.71a16.54,16.54,0,0,0,9.94-3,16.05,16.05,0,0,0,8.59,2.94v.08h4.73a16.28,16.28,0,0,0,10.19-3.21q4.46-3.4,4.46-8.32V270.65c0-.91-.35-4-4.73-4" transform="translate(-165.84 -217.64)"/></svg>